<svg width="98" height="110" viewBox="0 0 98 110" fill="none" xmlns="http://www.w3.org/2000/svg">
<path d="M82.312 81.5102H1.25V92.1786H96.7294V81.5102H82.312ZM91.9555 76.176C90.6665 54.4659 76.44 36.7031 57.7738 32.3824C58.3911 30.758 58.6393 28.9882 58.4961 27.2307C58.353 25.4731 57.823 23.7825 56.9535 22.3092C56.0839 20.836 54.9018 19.6259 53.5123 18.7868C52.1228 17.9477 50.5691 17.5057 48.9897 17.5C47.4103 17.5057 45.8566 17.9477 44.4671 18.7868C43.0777 19.6259 41.8955 20.836 41.0259 22.3092C40.1564 23.7825 39.6264 25.4731 39.4833 27.2307C39.3402 28.9882 39.5883 30.758 40.2056 32.3824C21.5394 36.7031 7.31294 54.4659 6.02397 76.176H91.9555ZM48.9897 41.9306C63.0729 41.9306 75.1033 51.6921 80.0205 65.4543H17.9589C20.4333 58.516 24.7127 52.566 30.2442 48.3727C35.7757 44.1794 42.3053 41.9354 48.9897 41.9306V41.9306Z" fill="black"/>
</svg>
