<svg width="99" height="98" viewBox="0 0 99 98" fill="none" xmlns="http://www.w3.org/2000/svg">
<path d="M67.9658 58.1551C62.6948 53.5989 55.8106 50.841 48.27 50.841C40.7293 50.841 33.8451 53.5989 28.5647 58.1644C28.4189 58.295 28.3297 58.4767 28.3157 58.6712C28.3017 58.8657 28.3641 59.0581 28.4897 59.208L31.8661 63.2052C32.1381 63.5219 32.6164 63.5592 32.9353 63.289C37.0246 59.7111 42.3893 57.5495 48.27 57.5495C54.1506 57.5495 59.5153 59.7111 63.6046 63.2797C63.9235 63.5499 64.4018 63.5126 64.6738 63.1958L68.0502 59.1987C68.3128 58.8912 68.2753 58.4253 67.9658 58.1551ZM78.9767 45.1014C70.6576 38.2159 59.9561 34.0697 48.27 34.0697C36.5838 34.0697 25.8823 38.2159 17.5538 45.1014C17.4015 45.2291 17.3061 45.4114 17.2885 45.6087C17.271 45.8059 17.3326 46.0021 17.46 46.1543L20.8365 50.1515C21.0991 50.4683 21.5774 50.5055 21.8869 50.2446C29.0431 44.3374 38.2438 40.7782 48.27 40.7782C58.2961 40.7782 67.4968 44.3374 74.6436 50.2446C74.9625 50.5055 75.4315 50.4683 75.6941 50.1515L79.0705 46.1543C79.3331 45.8375 79.2956 45.3623 78.9767 45.1014V45.1014ZM89.922 32.1503C78.5359 22.8701 63.961 17.2983 48.0824 17.2983C32.3069 17.2983 17.8258 22.7956 6.46788 31.9639C6.38985 32.0262 6.32515 32.1034 6.27759 32.1909C6.23003 32.2784 6.20058 32.3744 6.19097 32.4734C6.18135 32.5724 6.19177 32.6723 6.22161 32.7672C6.25145 32.8621 6.30011 32.9501 6.36471 33.0261L9.74114 37.0233C10.0038 37.3307 10.4727 37.3773 10.7822 37.1258C20.9771 28.9171 33.9483 24.0069 48.0824 24.0069C62.3196 24.0069 75.3752 28.9917 85.5983 37.3028C85.9171 37.5637 86.3861 37.5171 86.6487 37.2003L90.0251 33.2031C90.2971 32.8863 90.2502 32.4112 89.922 32.1503ZM42.1736 72.83C42.1736 74.4115 42.806 75.9283 43.9317 77.0466C45.0574 78.1649 46.5842 78.7932 48.1762 78.7932C49.7681 78.7932 51.2949 78.1649 52.4206 77.0466C53.5463 75.9283 54.1787 74.4115 54.1787 72.83C54.1787 71.2485 53.5463 69.7318 52.4206 68.6134C51.2949 67.4951 49.7681 66.8669 48.1762 66.8669C46.5842 66.8669 45.0574 67.4951 43.9317 68.6134C42.806 69.7318 42.1736 71.2485 42.1736 72.83Z" fill="black"/>
</svg>
