<svg width="107" height="107" viewBox="0 0 107 107" fill="none" xmlns="http://www.w3.org/2000/svg">
<path d="M44.5834 35.6667L30.0938 50.1563C31.4759 50.6913 32.5905 51.36 33.5267 51.895C35.1763 52.9204 36.1572 53.5 38.6538 53.5C41.1505 53.5 42.1313 52.9204 43.7809 51.895C45.8317 50.6913 48.5959 49.0417 53.5447 49.0417C58.4934 49.0417 61.2576 50.6913 63.2638 51.895C64.9134 52.8758 65.9388 53.5 68.3909 53.5C70.843 53.5 71.8684 52.9204 73.518 51.895C74.053 51.5829 74.6772 51.2263 75.3459 50.8696L46.7234 22.2917L22.2917 13.375V24.5208L40.1251 31.2083L44.5834 35.6667ZM98.0834 73.5625H97.9942H98.0834ZM23.8522 69.1042C26.3042 69.1042 27.3297 69.7283 28.9792 70.7092C30.9855 71.9129 33.7497 73.5625 38.6984 73.5625C43.6472 73.5625 46.4113 71.9129 48.4176 70.7092C50.0672 69.6838 51.048 69.1042 53.5447 69.1042C55.9967 69.1042 57.0222 69.7283 58.6717 70.7092C60.678 71.9129 63.4422 73.5625 68.3909 73.5625C73.3397 73.5625 76.1038 71.9129 78.1101 70.7092C79.7597 69.6838 80.7405 69.1042 83.2372 69.1042C85.6892 69.1042 86.7147 69.7283 88.3642 70.7092C90.3705 71.9129 93.0901 73.5179 97.9942 73.5625V64.6458C95.5422 64.6458 94.5167 64.0217 92.8672 63.0408C90.8609 61.8371 88.0967 60.1875 83.148 60.1875C78.1992 60.1875 75.4351 61.8371 73.4288 63.0408C71.7792 64.0663 70.7538 64.6458 68.3017 64.6458C65.8497 64.6458 64.8242 64.0217 63.1747 63.0408C61.1684 61.8371 58.4042 60.1875 53.4555 60.1875C48.5067 60.1875 45.7426 61.8371 43.7363 63.0408C42.0867 64.0663 41.1059 64.6458 38.6092 64.6458C36.1572 64.6458 35.1317 64.0217 33.4822 63.0408C31.4759 61.8371 28.7117 60.1875 23.763 60.1875C18.8142 60.1875 16.0501 61.8371 14.0438 63.0408C12.3942 64.0663 11.4134 64.6458 8.91675 64.6458V73.5625C13.8655 73.5625 16.6297 71.9129 18.7251 70.7092C20.3747 69.6838 21.4001 69.1042 23.8522 69.1042ZM83.2372 80.25C78.2884 80.25 75.5242 81.8996 73.518 83.1033C71.8684 84.1287 70.843 84.7083 68.3909 84.7083C65.9388 84.7083 64.9134 84.0842 63.2638 83.1033C61.2576 81.8996 58.4934 80.25 53.5447 80.25C48.5959 80.25 45.8317 81.8996 43.7809 83.1033C42.1313 84.1287 41.1505 84.7083 38.6538 84.7083C36.1572 84.7083 35.1763 84.1287 33.5267 83.1033C31.5205 81.8996 28.7563 80.25 23.8076 80.25C18.8588 80.25 16.0947 81.8996 14.0438 83.1033C12.3942 84.1287 11.4134 84.7083 8.91675 84.7083V93.625C13.8655 93.625 16.6297 91.9754 18.6805 90.7717C20.3301 89.7463 21.3555 89.1667 23.8076 89.1667C26.2597 89.1667 27.2851 89.7463 28.9347 90.7717C30.9409 91.9754 33.7051 93.625 38.6538 93.625C43.6026 93.625 46.3667 91.9754 48.4176 90.7717C50.0672 89.7463 51.048 89.1667 53.5447 89.1667C55.9967 89.1667 57.0222 89.7908 58.6717 90.7717C60.678 91.9754 63.4422 93.625 68.3909 93.625C73.3397 93.625 76.0592 91.9754 78.1101 90.7717C79.7597 89.7463 80.7405 89.1667 83.2372 89.1667C85.6892 89.1667 86.7147 89.7908 88.3642 90.7717C90.3705 91.9754 93.1347 93.625 98.0834 93.625V84.7083C95.5867 84.7083 94.6059 84.1287 92.9563 83.1033C90.9501 81.8996 88.1859 80.25 83.2372 80.25Z" fill="black"/>
<path d="M73.5626 35.6667C79.7183 35.6667 84.7084 30.6765 84.7084 24.5208C84.7084 18.3652 79.7183 13.375 73.5626 13.375C67.4069 13.375 62.4167 18.3652 62.4167 24.5208C62.4167 30.6765 67.4069 35.6667 73.5626 35.6667Z" fill="black"/>
</svg>
