<svg width="104" height="86" viewBox="0 0 104 86" fill="none" xmlns="http://www.w3.org/2000/svg">
<path d="M89.1367 53.0478L95.3334 47.9429L89.1367 42.8381L73.6667 55.5824L36.5301 24.9889L52.0001 12.2445L45.8034 7.13965L39.6067 12.2445L33.4101 7.13965L24.1367 14.7791L17.9401 9.67424L11.7434 14.7791L17.9401 19.884L8.66675 27.5234L14.8634 32.6283L8.66675 37.7332L14.8634 42.8381L30.3334 30.0937L67.4701 60.6873L52.0001 73.4316L58.1967 78.5365L64.3934 73.4316L70.5901 78.5365L79.8634 70.897L86.0601 76.0019L92.2567 70.897L86.0601 65.7921L95.3334 58.1527L89.1367 53.0478Z" fill="black"/>
</svg>
