<svg width="40" height="38" viewBox="0 0 440 338" fill="none" xmlns="http://www.w3.org/2000/svg">
<path d="M126.336 86.9541C126.487 86.9518 127.481 87.7028 130.711 90.7739H135.166L158.795 44.6312V36.5164L161.977 32.2999H163.25L181.786 0L194.436 15.8317L193.402 17.0251L195.709 19.3322L198.096 21.4802L205.017 22.6736L211.859 27.3674L218.223 24.8216L226.656 28.3221V36.5164H229.679L232.384 39.3009V43.8356L239.465 52.3481H242.329L243.363 53.9393L245.352 54.8144L249.489 61.6562H257.842L267.31 57.2806H273.754C274.868 56.9624 277.302 56.2623 278.129 56.0077C278.957 55.7532 280.808 55.1061 281.63 54.8144H285.926L289.426 53.9393H293.404L299.291 49.8023H305.258L307.247 46.9383L309.872 44.6312H312.418L314.089 43.8356L315.441 42.4831L317.43 39.3009L318.942 36.5164V34.1297L320.056 32.2999H333.58L335.251 30.7088H337.399V38.3462L343.047 42.4831H346.23L349.492 49.1659L348.855 52.3481L345.195 57.2806L347.344 61.6562L350.844 61.2585L354.663 54.8144H359.197V52.3481L361.982 51.1548L363.016 45.6654H367.63L371.131 49.8023L378.53 51.1548L383.78 52.3481V49.8023L380.2 46.9383V43.8356L385.849 38.3462L391.338 36.5164L403.113 39.3009L404.624 42.4831L413.853 44.6312L419.74 52.3481H422.922L433.264 61.6562L435.89 61.2585L439.39 59.1104V65.1567L435.89 67.1456H432.548L422.922 66.2705L418.626 64.2816H414.807L412.739 65.1567H410.273H407.488L404.624 67.9412L401.601 68.9754L401.124 73.7488L403.113 76.6129L408.602 74.4648L412.739 75.2604L411.625 78.7609L410.273 80.9089L408.602 82.4205H404.624L403.113 84.4094L401.601 91.0921L399.771 92.6037V94.9108L403.113 95.9451L404.624 94.9108H411.625V97.934L407.488 101.594L408.602 104.776L413.853 103.264L416.239 107.242V120.528H419.74L418.626 135.882V139.701L417.115 142.008L416.239 145.827V150.521L417.115 151.873V155.215L419.74 158.795V170.649L416.239 171.524L413.853 169.853H410.273L408.602 175.581L407.488 180.911L406.613 185.128L410.273 188.231L408.602 194.754V203.108L406.613 207.961V211.859L410.273 216.95H412.739L416.239 225.94L415.126 227.054V229.6L417.115 230.395L414.489 238.272L411.466 238.749V242.965L413.853 245.989L411.466 247.739V252.194L413.853 253.706L411.466 256.888L413.853 261.582H421.729L426.979 270.651V278.607L423.24 289.983L417.035 296.905L415.842 311.702L418.387 313.771L417.035 326.261L413.296 329.045H411.227L406.613 331.83H395.236L394.123 335.49H391.338L384.894 337.797V331.591L382.587 329.045H380.28H373.279L369.381 326.261L364.05 329.045V331.591H360.152H356.731H352.594L349.253 326.261L347.98 320.692L346.946 313.771L345.116 304.781L339.547 287.915L340.661 286.403L347.98 285.608L349.81 284.414L353.39 282.346V280.675L352.594 278.607L351.64 276.538H355.458V275.186L352.594 273.038V270.651L355.458 269.06V266.196L353.39 265.321V263.968L355.458 262.298L356.731 261.582L356.015 259.911L355.458 259.115L354.424 257.763H351.64L351.083 256.888V256.092L349.81 253.706L349.253 252.194L346.946 249.887V240.738L342.093 239.704L339.547 240.738L336.762 241.613L333.023 242.965L328.091 245.989L323.636 241.613L318.544 239.704L317.987 229.123L321.965 224.986V220.053L320.772 219.496L317.51 216.95L316.157 216.234H312.975L312.18 214.484V211.859L311.304 209.711H310.429L308.838 210.904L305.974 211.859L301.996 212.814H297.064H293.961H292.45C292.052 212.628 291.193 212.177 290.938 211.859C290.683 211.541 289.453 211.09 288.87 210.904C288.339 210.612 287.199 209.965 286.881 209.711C286.562 209.456 285.74 209.233 285.369 209.154L283.619 207.961L285.369 205.097V203.108V201.357L284.494 198.414V193.8L283.619 191.97L282.505 190.538L281.869 188.231L280.516 185.128L279.402 182.423L277.493 178.604L276.777 178.047L275.345 178.604L273.038 179.32L270.731 179.798L267.787 177.411L266.116 176.934L262.616 180.911L261.104 181.23H258.638L256.013 181.866L254.342 182.423L251.558 183.616V181.866L253.069 179.798L254.024 178.604L256.013 177.411L259.275 176.218L261.104 175.581L261.741 174.865L260.707 171.524H251.239L247.977 168.739H246.227L243.284 172.558H241.693L239.306 173.91L238.112 173.115L233.26 174.229V176.615L227.611 179.798L224.111 178.047L219.576 179.798H215.837L211.143 183.298L207.801 178.047L199.925 183.298L193.243 178.047L188.39 179.798L185.764 174.706L179.082 175.024L169.455 165.239L166.75 161.022L164.761 162.056L156.408 174.229L153.226 183.855L146.702 190.299H143.759L140.178 192.924H135.564L131.507 196.266L122.994 196.823L119.812 194.038L117.584 196.823H112.413L110.424 195.152L108.833 196.266L108.038 195.152L106.049 194.038L104.06 196.266L102.071 191.651L95.786 187.992H84.8867L82.5001 190.935L68.8959 196.266L59.5082 194.038L55.4509 190.299H54.4166L51.6321 187.992L48.8477 185.605L45.745 183.855L43.1992 183.298L37.6302 176.615L35.0048 172.24L31.9021 171.603L27.447 169.217L18.3775 168.103L14.5588 166.512L9.46722 164.045L7.87609 158.397L4.61427 156.567V154.578L3.02315 152.351V149.327L0 144.236L4.61427 135.007L0 120.051L11.9335 82.8183L14.5588 80.9885L24.8216 74.1466L31.6635 76.2946L34.6866 74.1466H51.6321L65.6341 77.7267L70.0892 82.8183L72.4759 80.9885L81.068 79.2382L81.7045 69.6915L86.0801 61.0198H93.5584L95.8655 57.8375L99.6047 58.8718L106.049 56.9624L116.391 67.623V70.3279L119.494 74.1466L118.141 76.2946L126.336 82.8183V86.9541Z" fill="#2493C2"/>
</svg>
